<svg viewBox="0 0 150 110" xmlns="http://www.w3.org/2000/svg" fill-rule="evenodd" clip-rule="evenodd" stroke-linejoin="round" stroke-miterlimit="1.414"><g fill="#fff"><path d="M50.484 56.658C48.644 54.368 45.29 54 43 55.84l-8.71 6.995c-2.29 1.84-2.657 5.193-.817 7.485 1.84 2.29 5.193 2.657 7.484.817l8.71-6.994c2.29-1.84 2.657-5.193.817-7.485z"/><path d="M46.4 54.67h.065l.064.003.063.003.064.003.063.003.065.006.063.005.064.006.063.008.064.01.06.006.064.01.064.01.062.01.063.013.063.013.062.013.063.015.064.015.062.016.06.015.063.016.06.02.062.018.06.02.062.02.06.02.06.02.06.024.06.023.06.023.06.025.06.025.06.026.057.026.06.027.058.03.06.03.055.028.057.03.057.03.058.034.055.03.057.034.056.035.055.034.055.035.054.035.053.036.055.04.053.038.053.04.053.037.053.042.05.04.052.042.05.043.052.044.05.044.05.046.05.045.047.047.048.047.048.048.046.048.046.05.045.048.047.05.045.052.046.053.043.053.044.052.043.054.04.054.044.056.04.055.04.055.038.055.04.056.035.056.037.057.035.056.034.057.033.058.035.06.03.056.033.06.032.06.03.057.028.06.03.06.026.06.026.06.027.06.024.062.024.06.024.06.022.062.022.06.022.063.02.062.02.06.02.064.017.062.018.063.015.06.016.063.016.064.014.063.013.063.013.063.01.063.013.063.01.063.01.063.008.063.01.064.006.063.006.064.006.064.005.064.004.064.003.064.003.063.002.064v.065l.002.064v.064l-.002.064-.002.064-.003.063-.003.066-.005.064-.006.062-.005.064-.006.063-.006.064-.01.062-.008.064-.01.063-.01.063-.01.063-.012.063-.013.062-.013.062-.015.062-.014.062-.016.062-.016.062-.016.062-.018.06-.018.063-.02.06-.02.062-.02.06-.022.062-.023.06-.022.06-.023.06-.025.06-.026.058-.026.06-.026.058-.028.058-.028.058-.028.06-.03.056-.03.057-.032.056-.032.056-.03.058-.035.055-.032.056-.035.057-.036.053-.036.056-.036.054-.038.053-.04.053-.038.053-.04.052-.04.052-.04.052-.043.05-.043.05-.043.052-.045.05-.045.05-.045.05-.046.047-.048.05-.048.046-.05.048-.047.047-.05.046-.05.046-.052.045-.053.045-.052.045-.053.043-8.71 6.994-.053.043-.055.042-.056.04-.054.042-.056.04-.055.038-.058.037-.056.036-.056.037-.058.035-.057.035-.058.033-.058.033-.06.032-.058.03-.06.032-.057.03-.06.03-.06.028-.06.027-.06.025-.06.027-.06.026-.06.024-.063.023-.06.023-.062.022-.062.02-.06.022-.064.018-.062.02-.063.017-.063.017-.062.018-.063.015-.063.015-.064.015-.063.012-.063.012-.063.012-.063.012-.064.01-.064.01-.063.008-.064.008-.065.007-.064.005-.062.006-.064.006-.064.005-.064.004-.064.002-.064.002h-.065l-.063.002h-.064l-.064-.002-.064-.002-.064-.004-.064-.003-.063-.005-.065-.006-.062-.005-.065-.008-.063-.007-.064-.01-.062-.006-.063-.01-.064-.01-.063-.01-.063-.013-.063-.012-.06-.013-.064-.015-.063-.015-.062-.016-.06-.017-.062-.016-.062-.018-.06-.02-.062-.02-.06-.02-.06-.02-.062-.02-.06-.024-.06-.023-.06-.023-.06-.025-.058-.024-.06-.026-.058-.026-.058-.027-.06-.028-.058-.03-.056-.028-.057-.03-.057-.032-.058-.033-.055-.032-.057-.034-.056-.035-.055-.035-.056-.036-.054-.037-.053-.036-.055-.038-.053-.04-.054-.04-.052-.037-.053-.042-.05-.04-.05-.04-.052-.044-.05-.044-.05-.043-.05-.048-.05-.045-.048-.046-.048-.045-.048-.05-.046-.047-.047-.05-.044-.048-.046-.05-.045-.052-.046-.053-.044-.052-.043-.053-.043-.054-.04-.054-.044-.056-.04-.055-.04-.054-.037-.055-.04-.055-.036-.056-.037-.06-.035-.055-.034-.057-.034-.058-.033-.058-.032-.058-.032-.06-.03-.06-.03-.057-.03-.06-.028-.06-.027-.058-.025-.062-.027-.06-.025-.062-.024-.06-.025-.06-.022-.06-.022-.063-.02-.062-.022-.06-.02-.063-.018-.063-.018-.062-.018-.063-.015-.062-.017-.063-.016-.064-.014-.062-.013-.063-.013-.063-.01-.062-.013-.065-.01-.063-.01-.063-.008-.065-.008-.064-.007-.062-.005-.064-.006-.063-.006-.064-.004-.064-.003-.064-.003-.063-.002-.064v-.064l-.002-.064v-.064l.002-.064.002-.064.003-.063.003-.065.005-.063.006-.064.006-.064.007-.063.007-.064.008-.064.01-.064.008-.063.01-.063.012-.063.01-.064.014-.063.013-.062.015-.06.014-.064.016-.062.016-.062.018-.06.017-.063.02-.063.02-.06.02-.06.02-.062.02-.06.024-.06.022-.06.024-.06.025-.06.026-.06.027-.058.026-.06.028-.057.03-.058.027-.06.03-.055.03-.058.032-.058.03-.056.032-.058.034-.055.033-.056.034-.056.036-.052.036-.056.037-.054.038-.053.04-.053.04-.053.038-.054.04-.052.042-.052.042-.05.043-.05.043-.052.044-.05.045-.05.045-.05.046-.047.047-.05.048-.046.05-.047.047-.047.05-.045.05-.046.052-.045.053-.044.052-.045.053-.043L43 55.84l.053-.042.055-.04.055-.043.054-.04.056-.04.055-.04.057-.036.056-.038.057-.037.058-.035.057-.035.058-.033.058-.033.058-.034.06-.03.058-.032.058-.03.06-.03.06-.028.06-.027.06-.027.06-.027.06-.026.06-.024.063-.022.06-.024.062-.022.062-.02.06-.022.063-.018.062-.02.063-.017.062-.016.062-.017.063-.016.063-.014.063-.014.064-.013.063-.014.063-.012.063-.012.064-.01.064-.01.064-.008.064-.008.064-.007.064-.007.063-.006.063-.005.065-.003.063-.006.065-.002.064-.002h.191zm-.115 1.04l-.054.002-.05.002h-.05l-.052.004-.052.003-.052.005-.05.004-.05.004-.052.006-.052.007-.05.008-.053.006-.05.01-.053.008-.05.01-.05.01-.05.01-.052.013-.05.013-.05.013-.05.013-.05.012-.053.014-.047.016-.05.016-.05.016-.05.017-.05.02-.05.018-.048.02-.05.017-.048.02-.05.023-.047.02-.046.023-.05.024-.047.022-.047.024-.048.025-.048.025-.046.026-.046.026-.045.028-.048.027-.047.03-.044.03-.048.028-.045.03-.045.032-.044.032-.043.032-.045.033-.046.034-.045.035-8.704 6.99-.047.037-.044.037-.04.034-.042.037-.04.036-.04.038-.04.037-.04.04-.04.037-.036.038-.037.04-.036.04-.036.04-.035.04-.035.04-.034.04-.034.04-.033.044-.033.04-.03.043-.033.043-.03.04-.03.045-.03.045-.03.043-.027.045-.027.044-.028.044-.026.046-.027.047-.026.045-.025.044-.024.046-.023.047-.024.047-.023.045-.02.048-.023.047-.022.047-.02.048-.02.046-.02.048-.016.05-.02.048-.017.05-.016.048-.017.05-.015.05-.015.046-.015.05-.013.05-.013.05-.014.05-.012.05-.012.05-.01.052-.01.05-.01.05-.008.05-.008.052-.01.05-.005.052-.007.05-.006.05-.004.053-.005.05-.004.053-.003.05-.003.05v.054l-.003.05v.053l-.002.05v.104l.002.05.003.053.003.052.004.052.003.05.005.052.005.05.006.053.006.05.006.05.008.052.008.05.008.05.01.053.01.05.01.05.013.052.01.05.014.05.013.05.014.052.015.05.014.048.015.05.016.05.017.05.017.048.02.05.017.048.02.05.02.05.022.047.02.048.023.05.022.047.023.047.024.047.025.047.025.047.027.048.024.045.027.046.03.046.03.047.027.045.03.046.03.044.03.044.034.045.033.046.034.044.034.044.035.044.035.043.035.043.036.042.037.04.038.043.036.04.038.038.04.04.037.037.038.038.04.04.04.036.038.035.042.037.04.035.042.035.04.033.042.033.04.032.045.033.042.03.043.03.043.032.044.03.043.028.045.03.044.027.046.03.043.024.046.025.045.026.045.025.046.026.046.024.047.023.043.02.05.025.047.02.046.022.047.02.05.02.05.02.046.018.047.018.05.018.048.015.048.017.05.015.05.016.048.014.052.014.05.014.05.012.05.012.05.012.05.01.05.01.052.01.05.008.05.008.05.008.053.008.052.007.048.005.053.006.05.003.053.006.05.003.052.002.053.004h.1l.054.002H37.725l.052-.002.05-.002.052-.003.05-.003.053-.004.05-.004.052-.007.053-.005.05-.007.05-.006.052-.007.05-.008.05-.01.053-.01.05-.01.05-.01.05-.013.052-.012.05-.013.05-.014.05-.012.05-.015.052-.013.047-.017.05-.016.05-.018.05-.017.048-.02.05-.02.05-.018.046-.02.05-.02.05-.02.045-.025.05-.023.047-.022.047-.024.048-.025.048-.025.046-.026.045-.026.047-.03.046-.025.045-.028.046-.03.044-.03.045-.03.045-.03.045-.034.044-.032.042-.032.046-.034.046-.037 8.705-6.99.045-.037.04-.036.044-.036.04-.037.042-.035.04-.038.04-.037.038-.04.04-.036.037-.038.036-.04.037-.038.036-.04.033-.04.036-.04.033-.042.034-.04.032-.043.032-.043.033-.04.03-.045.032-.04.03-.044.03-.046.028-.042.03-.045.027-.044.027-.043.025-.045.027-.044.025-.047.025-.044.024-.046.024-.047.024-.047.023-.045.022-.047.02-.047.02-.047.02-.05.02-.046.02-.048.018-.05.02-.047.016-.05.016-.05.016-.048.017-.05.014-.048.015-.05.013-.05.013-.05.013-.05.013-.05.01-.05.01-.052.012-.05.01-.05.008-.05.01-.052.007-.05.006-.052.007-.05.007-.05.004-.053.005-.05.003-.053.004-.05.003-.05.002-.052v-.053l.002-.052V59.893l-.002-.054-.002-.052-.003-.052-.004-.052-.002-.05-.005-.052-.005-.05-.006-.053-.006-.05-.007-.053-.006-.05-.01-.052-.007-.05-.01-.052-.01-.05-.01-.05-.012-.052-.013-.05-.012-.05-.013-.05-.014-.05-.014-.05-.017-.05-.016-.05-.016-.05-.016-.05-.017-.048-.02-.05-.018-.048-.02-.05-.02-.05-.022-.047-.02-.047-.024-.05-.02-.045-.025-.05-.026-.047-.024-.047-.025-.046-.027-.048-.025-.045-.027-.045-.028-.046-.028-.047-.03-.046-.03-.047-.03-.044-.03-.044-.034-.045-.034-.047-.032-.042-.034-.044-.034-.043-.035-.042-.035-.043-.036-.042-.037-.042-.038-.04-.036-.04-.04-.04-.036-.038-.038-.038-.038-.037-.04-.037-.038-.037-.042-.037-.04-.035-.038-.032-.042-.035-.042-.035-.04-.033-.042-.032-.044-.033-.04-.03-.044-.03-.043-.032-.044-.028-.046-.03-.043-.03-.044-.027-.045-.027-.045-.027-.045-.027-.045-.025-.046-.025-.046-.026-.045-.023-.047-.023-.046-.02-.046-.022-.05-.023-.047-.022-.046-.018-.05-.02-.047-.02-.05-.018-.048-.018-.048-.018-.05-.017-.05-.016-.05-.018-.046-.013-.05-.016-.05-.014-.05-.012-.05-.014-.05-.01-.052-.013-.05-.01-.047-.01-.052-.01-.053-.01-.05-.007-.05-.007-.05-.007-.054-.01-.05-.004-.05-.004-.052-.005-.05-.006h-.052l-.052-.004-.052-.002h-.052l-.05-.002h-.05l-.053-.002z"/></g><g fill="#fff"><path d="M59.056 62.422c-1.746-1.98-4.77-2.17-6.75-.424L39.49 73.296c-1.98 1.746-2.17 4.77-.424 6.75 1.747 1.982 4.772 2.17 6.752.425l12.812-11.297c1.98-1.746 2.17-4.77.424-6.75z"/><path d="M55.54 60.804l.114.003.115.006.113.01.113.01.114.013.114.017.114.02.113.022.113.025.112.028.11.03.11.032.11.036.11.04.108.04.107.043.108.046.105.05.105.05.103.055.104.06.1.058.1.063.1.066.096.068.095.07.048.036.048.037.048.038.046.038.046.04.045.038.044.04.045.042.043.04.045.044.042.04.043.045.043.045.044.046.04.046.042.046.04.046.04.047.04.05.04.046.036.05.036.047.037.05.035.047.036.05.034.05.033.05.033.05.033.052.03.05.03.052.03.052.058.103.055.104.052.107.05.107.046.108.045.11.04.108.04.11.035.11.034.114.03.11.026.113.025.114.02.113.02.114.016.114.015.115.01.113.008.115.005.117.003.115v.115l-.003.113-.006.115-.008.114-.01.114-.015.114-.016.114-.02.112-.02.114-.025.113-.028.112-.03.11-.033.112-.036.11-.04.11-.04.106-.044.108-.046.107-.05.105-.05.104-.055.104-.057.103-.06.103-.063.1-.065.097-.067.098-.07.095-.036.047-.037.048-.038.046-.04.046-.037.047-.04.045-.04.046-.04.044-.042.044-.04.044-.044.043-.043.044-.045.042-.045.04-.045.043-.046.04L45.82 80.47l-.047.042-.047.04-.047.04-.05.038-.047.037-.048.038-.05.035-.048.036-.05.035-.05.035-.05.034-.05.03-.05.033-.05.032-.053.03-.05.03-.105.06-.106.053-.106.053-.106.05-.108.048-.11.043-.11.04-.11.04-.11.036-.112.032-.112.03-.112.027-.112.026-.114.022-.114.018-.114.017-.114.014-.115.01-.115.008-.115.006-.115.002h-.115l-.115-.004-.114-.006-.115-.01-.112-.01-.114-.013-.114-.017-.114-.02-.113-.022-.11-.024-.114-.03-.112-.028-.11-.033-.11-.037-.11-.04-.107-.04-.106-.042-.108-.047-.104-.048-.105-.053-.104-.054-.102-.058-.1-.06-.1-.06-.1-.067-.096-.067-.095-.07-.05-.037-.046-.038-.046-.036-.048-.04-.045-.04-.046-.038-.045-.04-.046-.04-.044-.042-.044-.043-.043-.04-.044-.045-.042-.044-.044-.046-.04-.045-.042-.046-.04-.046-.04-.046-.04-.048-.038-.048-.038-.048-.036-.048-.037-.05-.036-.047-.036-.05-.033-.05-.034-.05-.03-.05-.033-.05-.032-.052-.03-.05-.032-.053-.056-.103-.055-.105-.053-.107-.05-.106-.047-.11-.044-.108-.042-.11-.04-.11-.033-.11-.035-.113-.03-.112-.026-.112-.024-.113-.022-.114-.02-.114-.014-.114-.014-.115-.01-.114-.01-.115-.004-.115-.003-.116v-.115l.005-.113.006-.116.008-.114.01-.115.015-.114.016-.113.02-.112.022-.114.026-.11.027-.113.03-.11.034-.112.036-.11.04-.108.04-.108.044-.11.046-.106.05-.105.052-.105.054-.104.056-.102.06-.1.063-.1.066-.1.067-.096.07-.096.037-.047.037-.05.038-.045.038-.046.038-.048.04-.045.04-.045.042-.044.042-.045.04-.044.044-.044.044-.043.044-.042.045-.04.046-.043.046-.04 12.813-11.3.046-.04.048-.04.048-.038.047-.04.048-.038.05-.037.05-.036.048-.037.048-.035.05-.034.05-.034.05-.032.052-.032.05-.032.052-.03.052-.03.103-.058.106-.055.106-.05.107-.052.107-.046.11-.043.11-.042.11-.038.11-.036.112-.033.112-.03.112-.026.113-.025.112-.023.114-.018.114-.018.116-.012.114-.01.115-.008.114-.007.114-.002h.115zm-.197 1.043l-.09.005-.09.005-.09.008-.09.01-.09.013-.088.015-.088.016-.09.02-.087.02-.087.024-.087.025-.086.027-.086.03-.086.032-.085.033-.085.037-.082.04-.083.04-.082.043-.083.046-.037.02-.04.025-.04.024-.04.024-.04.025-.04.026-.038.027-.038.028-.038.027-.038.03-.04.03-.037.03-.035.028-.038.03-.036.033-.04.033-12.806 11.294-.038.036-.037.032-.036.033-.034.034-.035.03-.033.036-.034.035-.03.036-.033.034-.032.035-.03.035-.03.036-.03.037-.03.036-.028.037-.027.034-.057.08-.052.074-.05.077-.05.078-.046.08-.045.08-.042.08-.04.082-.04.082-.035.083-.035.084-.032.084-.03.085-.028.085-.026.086-.025.088-.02.088-.02.088-.017.09-.016.087-.012.09-.01.09-.01.09-.007.09-.005.088-.002.09v.09l.002.09.003.09.008.09.008.09.01.09.013.09.014.09.017.088.02.088.02.088.024.087.026.086.027.086.03.087.032.084.033.085.037.083.04.084.04.082.042.08.047.084.022.04.022.037.026.043.025.04.025.038.027.04.026.04.027.037.03.04.027.037.03.038.028.038.03.037.03.037.033.038.032.036.03.036.035.037.033.036.033.034.035.034.034.034.033.033.034.032.036.033.036.032.034.03.035.03.035.03.036.03.038.028.034.026.08.06.075.052.076.05.078.05.08.046.08.045.082.043.08.04.083.038.083.036.083.034.086.032.085.03.088.028.086.026.086.023.09.022.088.02.088.018.087.014.09.013.09.01.09.01.088.006.09.005.09.003.092.002.09-.002.09-.005.09-.006.09-.008.09-.01.087-.014.09-.014.088-.016.088-.02.088-.02.087-.024.09-.027.085-.028.086-.03.086-.032.085-.034.086-.036.082-.04.084-.04.08-.043.086-.047.037-.02.04-.025.04-.026.04-.025.04-.025.038-.027.038-.026.04-.03.04-.026.037-.027.038-.028.038-.03.037-.03.037-.03.037-.034.04-.032L57.94 68.395l.038-.036.037-.033.035-.034.034-.032.035-.032.033-.035.032-.034.032-.036.033-.035.032-.036.03-.035.03-.037.03-.037.03-.036.028-.038.026-.033.057-.08.053-.075.05-.077.05-.077.047-.078.044-.08.043-.08.04-.083.038-.083.037-.083.034-.084.03-.084.03-.085.03-.085.025-.087.024-.087.02-.087.02-.088.016-.09.016-.087.013-.09.01-.09.01-.088.006-.09.007-.09v-.09l.002-.09-.003-.09-.003-.09-.007-.09-.01-.09-.008-.088-.015-.09-.014-.09-.017-.088-.02-.088-.02-.09-.023-.086-.026-.087-.027-.085-.03-.088-.032-.085-.034-.084-.036-.084-.04-.083-.04-.082-.042-.08-.047-.085-.022-.04-.024-.04-.026-.038-.025-.04-.026-.04-.025-.037-.03-.04-.027-.04-.027-.037-.028-.038-.03-.038-.03-.038-.03-.038-.03-.037-.03-.037-.033-.037-.033-.036-.033-.035-.034-.036-.033-.035-.033-.035-.034-.034-.035-.032-.034-.033-.034-.03-.035-.032-.036-.03-.035-.03-.036-.03-.038-.03-.037-.03-.034-.026-.077-.057-.075-.053-.077-.05-.077-.05-.08-.046-.08-.043-.08-.043-.082-.04-.08-.038-.083-.037-.084-.034-.085-.033-.085-.03-.086-.028-.087-.025-.088-.025-.086-.02-.088-.02-.09-.018-.087-.015-.088-.013-.09-.012-.09-.01-.09-.005-.088-.005-.09-.002h-.182z"/></g><g fill="#fff"><path d="M65.926 69.248c-1.818-1.915-4.848-1.994-6.763-.176l-12.14 11.525c-1.915 1.818-1.994 4.847-.176 6.762 1.818 1.914 4.847 1.993 6.762.175L65.75 76.01c1.915-1.817 1.994-4.847.176-6.762z"/><path d="M62.582 67.76l.114.006.114.005.114.01.115.014.113.016.114.018.112.02.113.024.112.026.11.03.112.03.11.035.11.036.11.04.108.043.106.044.108.05.106.05.104.053.103.055.103.06.102.06.1.065.096.066.05.035.05.036.048.036.047.037.048.036.046.037.045.038.047.04.045.04.046.04.044.04.045.043.044.043.044.044.044.044.042.044.042.045.04.045.043.047.04.046.04.048.04.046.037.048.037.047.037.048.037.048.035.048.035.05.035.05.032.05.033.05.032.05.06.1.06.104.055.104.054.105.05.106.047.107.045.108.043.11.038.108.04.11.032.112.03.11.03.113.026.114.023.113.02.113.02.114.013.113.012.115.01.115.007.115.004.115v.113l-.003.115-.004.115-.007.115-.01.114-.012.114-.016.113-.018.114-.02.115-.023.112-.027.112-.03.11-.03.113-.035.11-.037.11-.04.108-.042.11-.046.106-.048.106-.05.106-.052.105-.056.103-.06.102-.06.1-.065.1-.068.098-.035.05-.035.048-.036.047-.036.05-.037.047-.038.047-.038.047-.04.046-.04.046-.04.046-.04.044-.043.045-.043.044-.042.044-.043.044-.045.043-12.14 11.525-.046.043-.046.04-.046.042-.045.04-.047.04-.047.04-.048.037-.047.037-.048.037-.05.037-.047.035-.05.034-.05.034-.05.034-.05.032-.05.032-.1.062-.105.06-.103.055-.105.054-.106.05-.107.046-.11.045-.107.043-.11.04-.11.037-.11.034-.112.032-.11.03-.114.024-.113.023-.113.02-.113.02-.115.013-.116.01-.113.01-.114.008-.115.003h-.229l-.114-.005-.113-.006-.115-.01-.114-.013-.114-.015-.114-.018-.113-.02-.113-.025-.112-.026-.112-.03-.11-.03-.112-.035-.11-.037-.107-.04-.11-.043-.106-.044-.106-.048-.105-.05-.106-.054-.102-.056-.103-.058-.102-.062-.1-.064-.097-.066-.048-.035-.05-.036-.046-.033-.05-.038-.046-.038-.047-.038-.046-.038-.047-.04-.045-.04-.045-.04-.044-.04-.045-.042-.043-.042-.045-.045-.043-.043-.043-.045-.042-.045-.04-.046-.044-.048-.04-.046-.038-.047-.038-.047-.04-.047-.035-.047-.04-.05-.034-.048-.035-.05-.034-.048-.034-.05-.033-.05-.034-.05-.033-.05-.06-.102-.06-.102-.056-.105-.053-.105-.05-.105-.048-.108-.045-.107-.042-.11-.04-.108-.037-.112-.033-.11-.03-.11-.03-.113-.025-.113-.023-.113-.02-.112-.02-.115-.013-.113-.013-.115-.01-.115-.006-.114-.004-.115v-.113l.002-.115.004-.115.007-.114.01-.115.012-.114.015-.113.017-.113.022-.113.022-.114.026-.112.03-.112.03-.11.035-.11.038-.11.04-.11.042-.108.045-.106.048-.106.05-.106.053-.105.056-.104.058-.1.062-.1.064-.1.067-.1.036-.048.034-.048.036-.048.037-.048.036-.047.037-.046.04-.047.038-.046.04-.044.04-.046.042-.045.04-.045.044-.043.044-.044.044-.044.045-.043 12.14-11.525.045-.042.046-.042.046-.04.046-.04.047-.04.047-.04.047-.037.048-.036.048-.038.048-.035.05-.035.05-.034.05-.033.05-.033.05-.033.05-.03.1-.063.104-.058.104-.057.104-.054.106-.052.108-.047.108-.044.11-.042.108-.04.11-.036.11-.034.112-.032.112-.03.113-.025.112-.023.113-.02.115-.017.113-.015.115-.012.114-.01.115-.006.115-.004h.23zm-.208 1.042l-.09.002-.09.005-.09.007-.09.01-.09.01-.088.014-.087.018-.09.017-.09.02-.087.023-.087.024-.086.027-.086.028-.086.03-.084.034-.085.035-.084.037-.083.04-.08.042-.083.043-.08.046-.082.05-.036.023-.04.023-.04.027-.038.026-.04.027-.036.027-.04.03-.035.028-.038.028-.037.03-.038.03-.036.032-.036.032-.037.032-.033.033-.04.034-12.136 11.52-.035.037-.034.033-.034.035-.033.034-.033.033-.032.036-.032.034-.03.037-.032.036-.03.036-.03.037-.03.037-.026.037-.028.037-.027.04-.026.035-.053.08-.05.077-.048.08-.047.078-.045.08-.04.082-.04.082-.038.083-.036.084-.032.085-.03.085-.03.086-.027.086-.024.087-.022.087-.02.088-.02.088-.015.09-.014.088-.013.09-.01.09-.007.09-.006.09-.003.09-.002.09v.09l.004.09.005.09.006.088.01.09.013.09.014.09.015.087.018.09.02.087.023.088.025.087.026.086.03.086.03.084.032.085.036.083.037.084.04.083.04.082.043.08.046.08.05.083.023.038.025.037.027.04.026.04.028.037.028.04.027.036.03.038.028.038.03.037.032.037.03.037.032.035.033.037.03.034.035.036.035.036.033.034.034.034.035.033.034.032.035.032.035.032.035.03.036.032.037.03.036.03.036.028.038.03.038.027.036.026.037.026.08.054.077.05.078.047.08.046.08.044.082.042.08.037.086.04.083.034.085.034.085.03.086.03.086.026.087.025.087.023.088.02.088.018.088.017.09.014.09.012.09.01.088.006.09.007.09.002.09.002.09-.002.09-.002.09-.005.09-.008.09-.01.09-.01.088-.013.088-.018.09-.018.088-.02.088-.023.086-.025.087-.027.086-.03.084-.03.085-.032.084-.036.083-.036.083-.04.083-.04.08-.046.08-.046.08-.05.037-.023.042-.027.038-.026.038-.025.04-.027.038-.03.037-.026.036-.03.038-.03.038-.03.036-.03.036-.03.036-.032.037-.032.036-.034.04-.034 12.135-11.52.037-.037.035-.032.034-.035.034-.035.033-.034.03-.035.033-.036.03-.038.033-.035.028-.035.03-.037.03-.037.027-.036.028-.038.028-.037.025-.037.054-.08.05-.077.048-.08.046-.078.043-.08.042-.082.038-.083.038-.083.035-.084.034-.084.032-.085.03-.085.026-.087.024-.087.023-.087.02-.087.018-.09.016-.087.014-.088.012-.09.01-.09.007-.09.005-.09.004-.09.002-.09-.002-.09-.003-.09-.005-.09-.006-.088-.01-.09-.012-.09-.013-.088-.017-.09-.018-.088-.02-.09-.022-.086-.025-.087-.026-.086-.03-.086-.03-.084-.033-.085-.036-.086-.036-.083-.04-.083-.042-.08-.043-.082-.047-.08-.05-.082-.023-.037-.026-.04-.026-.04-.026-.038-.027-.037-.027-.037-.03-.04-.028-.037-.028-.036-.03-.038-.03-.037-.032-.036-.03-.037-.033-.036-.034-.037-.032-.035-.033-.034-.035-.035-.034-.033-.034-.033-.035-.034-.036-.033-.036-.032-.035-.03-.037-.03-.035-.03-.037-.03-.038-.03-.037-.028-.036-.027-.037-.027-.037-.026-.08-.054-.077-.05-.077-.047-.08-.045-.08-.045-.082-.04-.08-.04-.084-.037-.084-.036-.085-.033-.084-.03-.086-.03-.086-.026-.087-.026-.087-.022-.09-.022-.086-.017-.09-.015-.088-.015-.09-.01-.088-.01-.09-.01-.09-.005-.09-.003h-.18z"/></g><g fill="#fff"><path d="M71.154 77.353c-1.688-1.778-4.5-1.85-6.28-.164l-9.16 8.696c-1.777 1.687-1.85 4.5-.163 6.278 1.69 1.778 4.502 1.85 6.28.164l9.16-8.697c1.778-1.686 1.852-4.5.164-6.277z"/><path d="M68.05 75.972l.106.004.105.006.107.01.107.01.105.015.105.017.105.02.105.02.104.025.102.026.104.03.102.032.102.033.1.038.102.04.1.042.098.045.098.047.097.05.095.05.095.056.094.057.092.06.09.06.09.066.09.068.087.07.085.072.085.074.082.077.083.08.08.083.076.083.078.087.07.086.07.087.07.09.064.09.062.093.06.094.057.094.056.095.052.097.05.098.046.097.045.1.04.1.04.102.037.1.035.104.03.104.03.103.026.104.024.105.022.105.018.105.017.106.012.107.012.106.01.107.005.107.003.106v.106l-.002.105-.003.107-.006.107-.008.105-.01.106-.016.106-.017.106-.02.106-.02.104-.026.104-.026.104-.03.103-.032.102-.035.102-.036.1-.04.102-.04.098-.046.1-.046.097-.05.097-.05.096-.056.094-.058.094-.06.093-.06.09-.065.09-.068.09-.07.086-.07.086-.075.085-.078.083-.08.08-.08.08-9.163 8.698-.085.077-.085.076-.087.074-.09.07-.088.067-.09.066-.093.062-.094.06-.094.057-.096.055-.096.052-.097.05-.1.047-.1.043-.1.04-.1.04-.1.038-.104.034-.102.032-.103.03-.103.027-.105.023-.105.02-.105.02-.105.017-.107.013-.107.01-.105.01-.107.006-.107.003h-.214l-.107-.004-.106-.005-.106-.01-.107-.01-.105-.015-.106-.017-.105-.02-.105-.02-.104-.025-.104-.027-.103-.028-.103-.033-.102-.034-.1-.037-.102-.042-.1-.04-.098-.046-.098-.047-.097-.05-.096-.05-.094-.056-.095-.058-.092-.06-.09-.06-.09-.066-.09-.067-.087-.07-.087-.073-.085-.074-.082-.077-.083-.08-.08-.082-.076-.083-.077-.086-.072-.086-.07-.088-.067-.09-.065-.09-.062-.093-.06-.094-.056-.094-.055-.096-.053-.097-.05-.098-.047-.098-.044-.1-.042-.1-.04-.102-.036-.1-.035-.104-.03-.103-.03-.103-.027-.104-.024-.104-.02-.105-.02-.105-.016-.106-.013-.106-.012-.106-.008-.107-.006-.107-.004-.106v-.106l.002-.106.004-.107.006-.107.01-.106.01-.106.015-.105.016-.105.02-.105.02-.105.025-.104.027-.103.03-.103.032-.102.034-.102.036-.1.04-.102.042-.1.045-.098.046-.098.05-.097.05-.096.056-.095.056-.094.06-.092.062-.09.064-.09.067-.09.07-.087.07-.085.075-.085.077-.083.08-.08.082-.08 9.16-8.698.086-.078.085-.076.087-.073.09-.07.088-.067.09-.065.093-.06.094-.06.094-.058.097-.055.096-.052.097-.05.098-.047.1-.044.1-.04.102-.04.1-.038.103-.033.103-.032.104-.03.103-.026.105-.023.105-.02.105-.02.106-.015.106-.014.107-.01.105-.01.107-.005.106-.003.106-.002.107.002zm-.19 1.04l-.084.003-.082.005-.08.007-.082.01-.082.01-.08.01-.08.016-.082.016-.08.017-.08.02-.078.023-.08.024-.077.025-.077.03-.078.03-.077.03-.074.034-.076.035-.074.038-.073.04-.074.04-.073.045-.07.045-.07.05-.07.048-.07.052-.067.053-.066.057-.066.058-.07.064-9.153 8.686-.067.067-.06.063-.06.063-.057.063-.054.067-.053.067-.052.067-.05.07-.046.068-.045.072-.045.072-.042.07-.038.075-.04.074-.035.076-.033.075-.033.076-.03.078-.03.076-.024.08-.024.078-.023.078-.02.08-.02.08-.017.08-.013.08-.013.082-.012.08-.01.08-.005.083-.005.08-.004.083v.164l.002.08.006.084.006.08.01.082.01.08.012.082.015.082.016.08.02.08.02.08.022.078.023.08.026.077.03.078.03.077.03.075.036.077.036.076.037.073.04.074.04.073.045.072.045.072.048.07.05.07.05.068.055.067.055.066.058.066.06.065.062.064.063.062.063.058.066.057.066.057.066.052.068.05.07.05.068.048.07.045.073.043.073.042.072.04.074.037.075.036.075.034.076.032.077.03.077.028.077.027.08.024.08.022.077.02.08.02.08.016.08.014.083.013.08.01.082.01.08.006.082.005.082.004h.163l.082-.002.08-.005.08-.007.082-.01.083-.01.08-.012.08-.014.08-.015.08-.02.08-.02.08-.024.08-.024.077-.025.077-.03.077-.028.075-.033.077-.034.075-.035.073-.04.074-.04.074-.04.072-.044.07-.046.072-.047.068-.05.07-.05.067-.054.067-.057.066-.058.07-.064 9.15-8.687.068-.065.06-.063.06-.064.06-.065.053-.066.052-.066.052-.067.05-.07.046-.07.045-.07.044-.07.042-.073.038-.074.038-.075.037-.073.033-.075.033-.075.03-.078.028-.08.027-.076.024-.08.022-.077.02-.08.02-.08.016-.08.015-.08.012-.082.012-.08.008-.08.007-.083.005-.08.004-.083.002-.083v-.082l-.004-.08-.005-.084-.006-.08-.01-.08-.01-.082-.012-.08-.015-.083-.016-.08-.02-.08-.02-.08-.02-.078-.025-.078-.027-.08-.028-.078-.03-.077-.03-.075-.035-.076-.036-.076-.038-.074-.04-.074-.042-.073-.044-.072-.046-.072-.047-.07-.05-.068-.052-.07-.054-.07-.054-.064-.057-.065-.062-.065-.062-.064-.062-.06-.063-.06-.064-.056-.066-.056-.067-.053-.068-.05-.07-.05-.068-.047-.07-.045-.073-.044-.072-.042-.073-.04-.076-.038-.074-.035-.075-.035-.077-.032-.075-.03-.078-.028-.078-.026-.078-.026-.08-.022-.08-.022-.08-.017-.08-.018-.08-.014-.082-.013-.08-.01-.082-.01-.08-.006-.083-.004-.082-.003h-.16z"/></g><path d="M23.622 56.447l26.32-33.273L25.61 3.807C14.21 15.35 7.05 27.942 5 41.797l18.622 14.65zM124.247 58.028L97.322 21.82l26.484-19.817c11.75 12.633 18.963 26.247 20.704 41.042l-20.263 14.983z" fill="#fff"/><path d="M50.66 28.565L28.67 56.69l-3.546-2.9.66-.807 2.722 2.225 20.72-26.5-2.555-2.184.678-.792 3.31 2.833zM99.58 23.63l-3.038 2.184 21.56 28.633 2.948-2.022.587.86-3.768 2.584-22.802-30.28 3.902-2.806.61.846z" fill="#fff"/><path d="M61.106 31.006l.128.005.127.008.13.008.127.01.13.012.127.015.13.015.126.017.13.023.128.022.13.022.127.028.13.03.128.03.13.03.128.04.13.036.13.04.128.04.13.044.128.047.13.047.128.053.13.052.128.053.13.057.128.062.13.063.128.064.13.066.128.07.13.07.128.074.13.077.167.1 10.984 9.988.26.298.243.273.242.268.243.27.244.267.245.266.246.26.247.262.248.258.25.258.25.256.25.253.25.25.254.25.253.248.254.247.255.243.255.243.257.24.257.242.257.236.26.237.26.236.26.233.26.23.263.23.263.228.263.228.264.226.265.224.266.223.267.22.267.22.267.218.27.22.268.215.27.213.27.217.27.21.272.212.272.21.272.21.273.207.273.207.274.206.275.203.274.204.276.203.276.202.277.2.277.2.277.198.278.2.28.195.277.196.28.197.28.194.28.194.28.194.28.194.282.19.282.192.57.385 11.034 7.895.112.097.1.082.096.084.094.085.092.084.092.082.092.083.087.085.087.084.087.082.083.085.085.083.08.084.08.085.08.084.077.082.077.085.075.084.074.085.073.084.07.082.07.084.07.085.066.084.063.086.065.084.062.082.062.084.06.085.06.085.056.085.055.082.055.084.054.084.053.082.052.085.05.082.046.083.048.082.048.084.045.08.042.086.042.082.042.082.04.084.036.082.037.082.038.082.035.084.035.082.032.082.03.082.03.08.03.082.027.082.026.08.025.08.024.083.024.082.02.078.023.08.02.082.018.08.017.08.015.078.015.08.015.08.012.078.01.077.01.08.01.08.008.076.007.076.008.08.005.077.002.077.002.074.003.077v.153l-.003.077-.002.074-.005.075-.005.073-.005.074-.007.072-.008.074-.01.072-.01.072-.01.074-.012.072-.012.073-.015.07-.015.07-.015.07-.018.07-.017.07-.02.07-.017.066-.02.07-.024.067-.022.067-.023.067-.023.067-.025.065-.025.067-.027.063-.03.067-.027.062-.03.064-.03.062-.032.062-.032.062-.032.063-.032.06-.035.06-.036.058-.037.06-.037.06-.037.057-.04.057-.037.056-.04.057-.042.055-.04.054-.042.055-.045.054-.042.054-.045.052-.045.052-.047.052-.044.05-.048.052-.047.05-.05.047-.048.048-.05.047-.05.048-.05.044-.053.048-.053.044-.053.044-.052.042-.054.042-.055.045-.055.04-.054.042-.057.04-.057.04-.057.037-.058.04-.057.037-.06.033-.056.038-.062.035-.06.035-.06.035-.062.032-.062.032-.062.032-.062.03-.062.03-.065.03-.064.026-.064.03-.064.028-.065.024-.064.025-.067.025-.067.025-.068.022-.068.023-.067.022-.067.02-.067.02-.07.02-.07.017-.068.016-.07.018-.07.015-.07.013-.07.015-.07.013-.072.013-.07.013-.072.01-.07.01-.073.01-.072.007-.072.007-.074.008-.073.005-.075.005-.072.002-.074.003-.075.002-.073.003h-.075l-.072-.003h-.074l-.077-.002-.076-.005-.074-.003-.075-.007-.077-.005-.074-.008-.077-.007-.075-.01-.077-.01-.074-.012-.076-.01-.075-.015-.078-.012-.077-.015-.074-.017-.076-.015-.077-.016-.077-.02-.074-.02-.077-.02-.078-.022-.077-.022-.075-.025-.077-.025-.077-.025-.077-.027-.075-.028-.077-.03-.077-.03-.074-.03-.077-.03-.063-.03.028.034.05.06.046.056.05.06.043.06.045.06.045.06.042.056.042.062.04.06.04.06.04.06.036.06.038.06.038.062.035.06.032.062.035.06.032.062.03.062.03.062.03.06.027.062.026.064.027.06.025.062.025.062.022.062.025.065.02.062.02.062.02.06.02.063.017.064.017.062.015.062.014.062.015.062.012.064.012.062.01.062.012.063.008.062.01.063.007.062.006.062.008.062.005.06v.064l.003.064.003.062.002.062v.06l-.002.062v.062l-.003.062-.002.062-.004.062-.005.062-.004.06-.007.062-.01.06-.006.062-.01.06-.01.06-.013.06-.02.118-.03.12-.03.118-.035.117-.037.117-.04.115-.042.114-.048.11-.05.113-.05.11-.056.11-.057.11-.062.106-.062.105-.066.105-.07.102-.072.1-.074.1-.077.1-.08.097-.08.094-.085.095-.087.09-.09.093-.09.087-.093.087-.097.087-.1.082-.1.08-.1.08-.107.08-.106.077-.11.072-.11.073-.113.07-.115.067-.117.067-.12.064-.12.06-.123.063-.124.057-.125.055-.13.052-.13.052-.13.046-.134.048-.134.044-.136.04-.14.04-.138.037-.142.032-.143.032-.144.027-.145.027-.148.025-.147.02-.15.016-.15.015-.154.016-.154.01-.154.005-.156.006h-.317l-.158-.005-.16-.007-.16-.012-.163-.01-.164-.02-.165-.02-.163-.023-.166-.025-.165-.03-.167-.032-.168-.038-.168-.04-.17-.042-.17-.047-.17-.05-.17-.052-.087-.028-.086-.028-.087-.03-.155-.054-1.4-1.018.025.037.044.07.044.068.043.07.04.07.042.07.04.07.037.07.037.07.035.067.035.07.035.07.033.068.032.07.032.07.03.067.03.07.027.07.027.066.026.07.025.07.025.066.023.07.022.066.022.067.02.07.02.067.02.067.016.068.017.067.016.065.013.067.014.067.013.067.012.068.01.067.012.067.008.065.01.067.006.064.007.065.005.067.005.065.003.064.003.064.003.064v.194l-.002.062v.062l-.004.065-.005.063-.004.064-.006.062-.007.06-.008.064-.008.06-.01.06-.01.06-.012.063-.01.06-.014.06-.013.06-.014.058-.016.06-.016.06-.015.057-.02.06-.036.113-.04.115-.045.11-.047.11-.05.11-.052.11-.055.103-.057.105-.06.104-.064.1-.068.1-.068.095-.07.097-.075.095-.077.09-.078.09-.08.09-.083.086-.085.085-.087.082-.09.082-.09.08-.093.077-.096.075-.096.075-.1.07-.1.07-.102.066-.104.067-.106.062-.107.062-.11.057-.11.06-.113.054-.113.053-.116.05-.116.05-.12.045-.117.044-.12.04-.122.04-.122.038-.124.035-.126.035-.126.03-.127.027-.128.027-.13.023-.13.022-.13.02-.133.015-.132.015-.134.012-.134.01-.135.007-.136.002-.135.002h-.137l-.137-.003-.137-.008-.14-.008-.137-.01-.138-.015-.14-.016-.14-.02-.14-.02-.14-.024-.14-.027-.14-.03-.14-.033-.142-.034-.14-.038-.142-.042-.14-.042-.14-.047-.14-.05-.14-.052-.14-.055-.14-.06-.14-.06-.138-.063-.14-.067-.137-.07-.14-.074-.136-.075-.136-.078-.136-.082-.135-.087-.134-.087-.134-.092-.134-.094-.123-.092-.86-.6.033.06.05.105.045.102.043.104.038.104.036.104.032.104.028.105.024.104.02.105.018.107.015.104.01.104.007.107.004.105v.104l-.003.104-.006.104-.01.102-.012.102-.017.102-.02.102-.02.1-.027.1-.028.1-.032.097-.034.096-.037.097-.04.096-.043.094-.046.092-.048.09-.05.093-.054.09-.057.088-.06.087-.06.084-.063.086-.066.085-.067.083-.07.082-.073.08-.075.076-.077.078-.08.077-.08.072-.084.075-.085.07-.09.07-.088.068-.092.065-.092.067-.096.062-.097.062-.1.06-.1.06-.102.056-.104.052-.106.055-.108.05-.11.05-.11.048-.112.045-.114.044-.116.043-.117.04-.118.04-.12.034-.123.034-.122.033-.125.03-.125.028-.127.027-.128.023-.13.022-.13.02-.132.017-.132.015-.135.012-.134.01-.136.008-.138.007-.138.002h-.14l-.14-.003-.142-.003-.142-.008-.143-.01-.144-.01-.145-.015-.145-.018-.147-.02-.147-.022-.15-.025-.147-.027-.15-.032-.15-.032-.15-.037-.15-.036-.152-.042-.15-.045-.154-.05-.153-.05-.153-.054-.154-.057-.154-.06-.154-.062-.155-.067-.155-.07-.155-.07-.156-.076-.155-.078-.156-.082-.156-.085-.156-.09-.156-.088-.156-.097-.156-.097-.156-.102-.156-.106-.156-.107-.154-.11-1.048-.766-1.046-.76-2.094-1.526-1.047-.762-1.047-.767-1.046-.768-.522-.385-.522-.387-.522-.387-.52-.388-.522-.39-.52-.39-.52-.392-.52-.392-.52-.395-.517-.396-.517-.397-.517-.4-.517-.402-.516-.402-.515-.408-.516-.407-.513-.41-.51-.412-.513-.414-.51-.418-.51-.42-.508-.42-.51-.426-.505-.427-.505-.43-.253-.217-.252-.216-.25-.22-.252-.217-.25-.22-.252-.22-.25-.22-.25-.222-.25-.223-.248-.223-.25-.224-.248-.226-.248-.226-.248-.226-.248-.228-.247-.23-.246-.23-.247-.23-.246-.23-.246-.232-.245-.236-.245-.234-.245-.236-.244-.235-.245-.237-.243-.24-.243-.24-.243-.24-.242-.24-.242-.245-.24-.243-.242-.243-.24-.246-.24-.248-.24-.246-.237-.25-.24-.25-.237-.253-.237-.25-.24-.255-.235-.255-.236-.256-.237-.258-.235-.26-.235-.257-.234-.26-.235-.265-.233-.263-.232-.263-.27-.31-.147-.277-.118-.224-.116-.226-.115-.226-.113-.226-.112-.226-.11-.23-.11-.227-.107-.232-.105-.23-.105-.23-.102-.233-.1-.233-.1-.234-.098-.233-.097-.236-.094-.237-.092-.238-.09-.24-.09-.237-.088-.24-.087-.242-.084-.24-.083-.244-.08-.243-.08-.247-.076-.246-.073-.246-.073-.247-.07-.248-.07-.25-.057-.212-.05-.122-.068-.148-.07-.15-.07-.143-.07-.145-.073-.14-.074-.138-.076-.136-.077-.134-.08-.13-.08-.13-.08-.127-.083-.125-.084-.124-.086-.118-.087-.12-.09-.114-.09-.114-.09-.112-.094-.11-.094-.106-.096-.104-.097-.104-.1-.102-.1-.1-.1-.094-.104-.094-.105-.094-.105-.09-.107-.087-.11-.087-.527-.404.634-.827.535.408.122.097.122.102.12.102.12.103.116.107.115.11.113.11.112.115.11.117.108.12.106.118.105.124.102.125.1.128.1.13.098.13.096.134.094.14.092.14.09.138.09.144.086.146.085.147.084.15.08.153.08.153.08.157.076.16.074.16.073.164.085.196.074.28.066.244.068.24.07.24.073.238.074.238.077.236.078.236.08.236.08.233.084.235.084.23.087.234.09.23.09.228.09.23.094.23.096.226.096.226.098.225.1.226.102.227.102.224.105.224.106.22.106.225.11.22.11.22.11.22.114.218.114.218.088.167.19.218.23.264.232.26.23.26.233.258.232.255.232.256.233.256.234.252.233.253.235.25.235.25.236.25.235.246.237.25.237.245.237.243.237.244.24.243.238.24.24.242.24.238.24.24.24.234.24.235.243.236.242.237.242.23.242.234.243.232.244.23.243.23.244.228.245.23.245.227.245.226.246.223.247.224.246.223.248.224.247.22.248.222.248.22.25.218.248.22.25.217.25.216.25.22.25.213.25.216.5.426.503.425.506.423.505.42.507.417.508.415.508.412.51.41.51.407.51.404.514.405.513.4.514.4.515.397.515.397.516.395.518.395.517.39.52.392.518.386.52.39.52.388.52.384.52.385.522.385 1.044.767 1.043.765 1.047.762 2.093 1.525 1.047.762 1.045.762.145.104.143.1.143.096.142.092.143.09.143.086.142.085.142.08.14.078.142.072.14.072.14.068.14.067.14.062.138.06.14.054.137.054.138.05.137.05.136.045.136.042.135.038.135.038.134.034.133.033.13.03.133.027.132.025.13.022.13.02.128.017.128.015.128.012.125.01.125.007.125.004.123.005h.242l.12-.004.12-.005.118-.006.117-.007.116-.01.113-.015.114-.015.11-.015.112-.02.11-.02.107-.022.107-.023.105-.027.104-.027.103-.027.1-.033.1-.032.1-.03.097-.04.095-.036.093-.037.093-.04.09-.042.09-.042.086-.045.087-.045.082-.044.083-.05.08-.048.08-.052.076-.05.077-.052.073-.055.07-.054.07-.056.07-.057.065-.057.063-.057.062-.06.06-.06.058-.062.056-.058.054-.062.052-.065.05-.062.047-.064.046-.066.043-.064.042-.065.04-.067.036-.065.035-.067.032-.067.03-.068.028-.07.027-.066.024-.07.023-.067.02-.07.018-.07.016-.07.013-.07.01-.07.01-.068.006-.07.004-.072.002-.07v-.07l-.002-.07-.005-.073-.007-.07-.01-.07-.012-.073-.014-.072-.017-.075-.02-.072-.02-.072-.026-.074-.028-.073-.03-.075-.033-.074-.037-.075-.038-.074-.04-.076-.046-.074-.048-.075-.05-.077-.055-.074-.028-.037-5.993-5.175.592-.76 8.072 5.652.126.09.117.086.118.08.118.08.12.073.12.072.12.07.12.067.12.062.12.062.12.06.12.054.123.055.122.05.12.047.123.047.122.04.122.04.122.038.122.037.122.033.12.03.123.027.123.027.12.022.122.02.122.02.12.017.12.014.12.012.12.01.12.005.117.006.118.003h.234l.116-.006.116-.005.114-.01.114-.01.113-.01.114-.016.112-.015.11-.02.11-.02.11-.023.108-.025.106-.025.106-.027.105-.03.105-.032.102-.035.1-.035.1-.037.1-.036.097-.042.096-.042.095-.043.093-.044.09-.048.09-.05.09-.05.087-.05.085-.056.084-.055.082-.057.08-.057.08-.06.075-.06.076-.06.073-.065.07-.065.07-.064.067-.067.066-.07.063-.07.062-.072.06-.072.056-.072.056-.075.053-.078.05-.077.05-.077.046-.08.044-.08.042-.08.04-.083.038-.082.035-.084.033-.085.03-.087.03-.09.013-.042.012-.045.013-.043.012-.045.01-.045.012-.044.01-.048.008-.044.01-.046.007-.045.006-.048.007-.048.005-.047.006-.047.004-.047.004-.05.004-.047.002-.047.002-.05.002-.05v-.149l-.002-.05-.002-.05-.003-.048-.004-.053-.003-.05-.005-.052-.005-.052-.007-.053-.007-.052-.008-.05-.01-.053-.01-.055-.01-.052-.01-.054-.012-.053-.013-.054-.013-.056-.014-.054-.016-.055-.015-.055-.017-.057-.018-.054-.018-.06-.02-.053-.02-.057-.022-.057-.02-.055-.024-.06-.024-.057-.025-.056-.025-.057-.026-.06-.028-.057-.028-.06-.028-.06-.03-.056-.032-.06-.032-.062-.033-.06-.033-.06-.035-.058-.036-.06-.037-.062-.038-.06-.04-.062-.04-.062-.04-.06-.04-.06-.007-.01-9.217-7.9.61-.77 11.478 8.348.01.005.076.026.078.027.076.025.154.047.153.045.152.042.15.038.152.037.15.032.148.026.147.028.147.025.146.018.145.018.144.015.143.013.142.01.14.008.14.003.14.002.136-.002.137-.002.135-.004.133-.01.133-.01.13-.015.13-.014.13-.018.127-.02.126-.024.124-.025.123-.028.12-.028.122-.032.117-.032.117-.037.116-.038.114-.04.112-.04.11-.044.11-.044.107-.047.105-.048.105-.052.102-.052.1-.055.098-.054.097-.06.097-.058.092-.06.09-.062.09-.062.087-.064.084-.067.086-.068.08-.07.08-.07.076-.072.074-.072.072-.074.072-.075.067-.077.067-.077.065-.076.06-.08.06-.08.058-.08.054-.083.052-.082.05-.085.047-.082.048-.086.043-.086.043-.087.037-.087.037-.087.032-.09.032-.088.027-.087.026-.092.023-.09.02-.09.018-.093.008-.045.01-.045.005-.047.008-.047.005-.046.005-.047.005-.047.005-.045.003-.047.003-.047.003-.046v-.189l-.003-.045-.002-.05-.002-.047-.002-.047-.005-.047-.004-.048-.005-.047-.007-.047-.007-.05-.008-.047-.007-.046-.01-.05-.01-.047-.01-.05-.01-.047-.014-.05-.012-.047-.015-.05-.016-.047-.015-.05-.016-.047-.017-.05-.017-.05-.02-.047-.018-.05-.02-.047-.022-.052-.02-.047-.022-.05-.025-.047-.025-.05-.022-.05-.027-.05-.026-.05-.028-.046-.03-.05-.03-.05-.03-.05-.03-.05-.03-.046-.033-.05-.033-.05-.034-.05-.038-.048-.034-.05-.038-.047-.037-.05-.04-.05-.04-.05-.043-.05-.042-.046-.042-.05-.042-.05-.044-.047-.047-.05-.048-.05-.047-.046-.048-.047-.05-.05-.05-.05-.05-.047-.056-.047-.05-.05-.055-.047-.055-.05-.057-.047-.057-.048-.06-.047-.06-.047-.062-.047-.06-.046-.064-.048-.064-.047-.065-.048-.063-.045-.067-.047-.092-.062-8.803-7.203.602-.787 9.328 6.662.077.064.062.05.065.05.06.05.065.046.065.048.062.044.062.042.065.045.063.04.065.044.062.04.067.04.062.036.063.038.065.037.065.035.064.034.065.035.064.03.065.034.065.03.065.03.064.03.065.026.064.028.064.027.065.025.064.025.065.022.064.022.065.022.065.02.065.02.065.02.062.017.064.018.066.015.064.018.062.013.065.015.064.015.066.012.065.01.063.013.064.01.062.007.064.01.062.007.062.008.065.005.062.005.062.005.062.002.06.005h.063l.062.003h.184l.06-.003.063-.002.06-.003.062-.005.06-.002.06-.008.058-.005.062-.007.058-.007.06-.008.06-.01.058-.007.058-.013.06-.01.057-.012.057-.012.057-.012.056-.012.058-.015.057-.014.055-.015.057-.016.055-.018.057-.017.055-.02.053-.018.055-.02.052-.02.055-.02.052-.022.052-.023.054-.022.052-.022.05-.025.052-.023.052-.027.05-.025.05-.025.05-.027.048-.026.048-.027.05-.03.046-.03.048-.03.047-.03.047-.03.045-.032.046-.032.045-.032.045-.032.045-.032.045-.035.042-.033.042-.035.04-.037.043-.035.043-.037.04-.038.04-.037.04-.037.04-.04.038-.04.038-.036.037-.04.036-.042.035-.04.038-.042.035-.042.035-.042.034-.042.033-.043.032-.043.032-.045.03-.045.03-.044.034-.045.03-.047.03-.044.026-.047.028-.048.027-.047.027-.048.028-.05.025-.046.022-.05.025-.05.025-.05.022-.05.02-.05.02-.052.02-.05.02-.052.02-.052.02-.055.018-.053.015-.055.017-.052.015-.054.015-.055.015-.054.012-.057.015-.055.01-.055.013-.057.01-.057.01-.057.007-.058.007-.06.007-.057.007-.06.005-.057.004-.06.003-.06.005-.06.002-.06v-.244l-.002-.062-.003-.062-.006-.065-.005-.062-.006-.064-.007-.064-.008-.064-.008-.065-.01-.064-.01-.065-.012-.067-.013-.063-.012-.067-.015-.065-.015-.067-.015-.067-.017-.066-.02-.07-.018-.067-.022-.067-.02-.07-.022-.07-.024-.066-.022-.07-.028-.07-.027-.07-.028-.07-.028-.07-.03-.072-.032-.07-.032-.07-.032-.073-.035-.07-.037-.075-.035-.072-.04-.072-.036-.07-.042-.073-.042-.075-.043-.074-.042-.072-.047-.075-.045-.073-.047-.075-.05-.074-.05-.075-.05-.074-.053-.076-.055-.077-.055-.074-.057-.075-.057-.077-.06-.073-.063-.077-.06-.077-.064-.075-.064-.077-.066-.076-.067-.077-.07-.077-.07-.077-.07-.077-.073-.08-.074-.076-.075-.077-.08-.077-.076-.077-.08-.08-.083-.077-.082-.08-.084-.077-.086-.08-.084-.076-.09-.08-.09-.077-.09-.077-.08-.067-10.987-7.867-.56-.377-.284-.19-.285-.195-.282-.193-.283-.193-.283-.197-.28-.196-.283-.195-.28-.2-.282-.197-.28-.2-.28-.2-.28-.2-.28-.205-.278-.203-.278-.204-.278-.206-.277-.206-.276-.21-.276-.207-.276-.21-.276-.212-.275-.21-.273-.217-.274-.214-.273-.216-.273-.218-.272-.22-.27-.217-.272-.22-.27-.225-.27-.223-.27-.226-.267-.23-.268-.228-.267-.23-.265-.232-.266-.23-.266-.237-.264-.236-.264-.238-.262-.24-.262-.24-.262-.244-.26-.245-.26-.245-.258-.25-.258-.247-.257-.253-.257-.253-.255-.256-.255-.256-.254-.258-.252-.26-.253-.264-.25-.266-.25-.265-.25-.27-.247-.272-.248-.273-.246-.273-.247-.28-.224-.255-10.867-9.877-.078-.05-.117-.07-.116-.064-.115-.065-.116-.065-.115-.06-.115-.057-.116-.054-.115-.055-.115-.05-.115-.05-.114-.048-.114-.044-.114-.042-.115-.043-.113-.04-.114-.034-.114-.036-.112-.032-.114-.032-.113-.03-.113-.025-.113-.027-.113-.023-.113-.022-.11-.02-.114-.017-.113-.015-.112-.014-.11-.013-.114-.01-.11-.01-.114-.007-.112-.005h-.112l-.112-.004-.113-.002-.112.002-.11.003-.113.004-.113.005-.112.006-.112.01-.112.01-.113.012-.112.015-.113.015-.112.015-.112.02-.113.02-.113.02-.113.022-.113.025-.112.025-.112.027-.113.03-.114.027-.113.03-.113.034-.113.034-.114.035-.112.035-.114.037-.103.037-.147.06-.165.062-.083.03-.083.03-.083.03-.084.027-.083.028-.083.027-.083.025-.084.025-.083.022-.083.023-.083.022-.083.02-.082.02-.084.02-.084.017-.083.016-.083.018-.084.015-.084.014-.084.012-.083.015-.084.01-.085.01-.083.01-.083.01-.084.008-.084.005-.084.007-.084.003-.083.005-.085.002-.084.003h-.168l-.083-.003-.084-.002-.083-.005-.085-.005-.083-.005-.085-.007-.084-.008-.082-.01-.085-.01-.084-.012-.084-.013-.084-.012-.084-.014-.084-.015-.083-.016-.083-.02-.083-.017-.084-.023-.083-.02-.083-.022-.083-.025-.083-.025-.084-.027-.082-.027-.082-.028-.092-.032-4.714-1.942.397-.963 4.69 1.932.062.022.07.025.07.022.07.023.07.02.07.022.072.016.07.02.07.015.07.018.07.015.07.015.07.013.072.013.07.012.07.01.07.01.07.008.072.01.07.005.07.007.072.005.07.003.07.005h.072l.07.002H54.896l.07-.002.073-.003.07-.005.073-.005.072-.005.072-.007.072-.008.07-.007.073-.01.07-.01.074-.01.07-.012.073-.013.072-.012.072-.014.073-.015.072-.014.072-.017.072-.02.073-.016.073-.02.074-.02.073-.02.073-.022.074-.022.073-.023.074-.025.072-.024.074-.025.074-.027.073-.028.15-.057.165-.066.133-.045.124-.043.124-.04.124-.037.123-.037.124-.035.123-.035.124-.032.125-.03.125-.028.124-.03.126-.025.126-.027.125-.023.125-.022.126-.02.126-.02.126-.015.126-.017.126-.013.126-.012.128-.01.126-.01.127-.005.126-.005.127-.005h.255l.128.003z" fill="#fff"/><path d="M47.956 40.06c-3.878 2.025-4.2 4.334.342 7.026 3.924 1.487 8.19 1.778 13.562-1.813 2.354-2.004 5.046-3.508 8.443-3.973l3.228-.248c8.205 11.606 20.08 19.492 30.966 27.427 3.173-5.098 6.83-10.603 12.735-14.765L97.368 27.147c-4.482 3.1-8.884 4.425-13.16 2.98-3.4-1.634-7.186-2.828-13.1-1.59l-8.225 2.196c-1.995.51-3.646 1.57-4.994 3.118-2.74 2.936-6.033 5.034-9.932 6.21z" fill="#fff"/></svg>