<svg viewBox="0 0 150 110" xmlns="http://www.w3.org/2000/svg" fill-rule="evenodd" clip-rule="evenodd" stroke-linejoin="round" stroke-miterlimit="1.414"><path d="M41 62.002l-7-14c-2.422-4.68-.992-12.62 2-18 5.175-9.31 14.317-15.49 25-19l21-9c4.097-1.99 8.423-2.05 13 0l21 10c3.906 2.2 5.303 6.05 2 13l-10 24c-3.317 5.98-8.197 10.05-14 13l-28 15c-12.347 8.18-24.844-4.59-14-14l17-12 6.417-9v-5c-4.495-1.98-8.97-2.62-13.417-1-2.954 2.09-5.428 4.62-7 8l1 6c-4.77 5.54-9.74 9.75-15 12z" fill="#fff"/><path d="M80.49 70.702c2.486 3.9 3.927 8.54 3.927 13.51 0 13.91-11.296 25.21-25.208 25.21-13.914 0-25.21-11.3-25.21-25.21 0-4.97 1.44-9.61 3.928-13.51 2.74 9.15 11.237 15.84 21.28 15.84 10.045 0 18.54-6.69 21.28-15.84z" fill="#fff"/></svg>