<svg viewBox="0 0 68 12" xmlns="http://www.w3.org/2000/svg" fill-rule="evenodd" clip-rule="evenodd" stroke-linejoin="round" stroke-miterlimit="1.414"><path d="M45.917 4.395c-.4-.06-.8.204-.89.586-.088.382.167.742.57.8.4.06.8-.203.89-.585.088-.38-.168-.74-.57-.8zm-28.862-2.25c-.81.654-1.562 1.508-1.65 2.974-.03.47-.034.74.308.985.43.306-.126.813-.412.48-.382-.45-.898-1.2-.544-2.74C15.11 2.297 16.958.747 18.63.257c1.32-.388 2.932-.013 3.73 1.45 1.252 2.3.135 8.29-3.244 9.45-1.427.49-2.472-.46-2.71-1.1-.648-1.737-.208-5.333.65-7.912zM18 1.492c.074.1.23.223.305.323-.818 2.42-1.288 4.89-1.108 6.965.055.63.142 1.586 1.114 1.676.84.078 1.252-.383 1.67-.868 1.167-1.354 1.908-3.372 1.765-6.017C21.557 1.024 19.662.356 18 1.49zm5.008 5.92c.05-.136.278-.167.387-.167.14 0 .345.088.32.252-.106.73-.16 1.45-.085 2.136.03.308.218.406.485-.08.268-.483.435-1.408.638-2.18.05-.137.326-.224.52-.156.12.042.262.17.23.295-.16.584-.2 1.125-.18 1.71.013.37.644.39.702.154.15-.61.29-1.233.28-1.848-.15-.22-.26-.45-.226-.698.044-.34.507-.568.842-.24.157.155.115.524.01.787.22.214.482.513.76.667.383.21.05.553.027.837-.07.827.106 1.12.345 1.24.373.186.768.064 1.033-.096.228-.114.444.085.24.27-.262.238-.697.486-1.166.458-.484-.03-.986-.28-1.124-.822-.056-.33.032-.86.088-1.19.02-.09-.258-.19-.353-.357-.166.668-.372 1.805-.91 1.966-.573.12-.838-.115-1.107-.548-.193.49-.464.88-1.03.95-.366.045-.8-.164-.9-.693-.167-.883-.073-1.768.172-2.65zm17.574-5.39c-.533 2.354-.93 4.653-1.08 6.99-1.478.887-3.236 1.704-4.716 1.424-2.01-.548-2.615-2.46-1.107-5.375 1.062-2.162 3.55-4.277 4.03-2.933.106.296.092.698 0 .997-.746-.028-1.35.266-1.697 1.074-.272.634 0 1.214.57 1.324.84.087 1.475-.7 1.81-1.574.576-1.527.33-2.654-.89-2.904-3.737-.766-7.2 6.482-5.103 8.8 1.117 1.237 2.807 1.522 4.794.866.854-.283 1.524-.666 2.273-1.034-.01.26-.02.518-.024.777-.006.38.754.643.946.243.48-1.003.755-1.673 1.24-2.46.226 1.336.728 2.144 1.505 2.25.68.092 1.39-.21 1.867-.852.266.51.885.84 1.514.673.545-.145.58-.356 1.085-.845.634 1.132 2.02 1.027 3.145.432.116.375.53.678 1.135.558.806-.123 1.397-1.18 1.856-1.726.304 1.195.798 1.67 1.515 1.62.763-.052 1.216-1.258 1.647-2.77.208.298.47.373.54.554-.516 1.166-.39 1.82.19 2.16.31.18 1.057-.01 1.384-.283.31.365.788.444 1.122.277.482-.242.826-.77 1.154-1.15.015.798.134 1.166.52 1.154.436-.013.873-.61 1.31-1.507.042 1.033.77 1.75 1.507 1.822.87.084 1.66-.213 2.394-.5.23-.155.035-.435-.162-.347-.817.365-1.977.508-2.312.3-.535-.33-.886-1.072-.592-2.366.076-.327.16-.52-.13-.687-.397-.23-.627-.033-.656.212-.312.903-.545 1.412-1.074 2-.062-.438.017-.835-.085-1.268-.072-.31-.365-.372-.628-.12-.622.595-1.28 2.614-1.845 1.693.718-.732 1.487-2.27.662-2.623-.982-.42-1.682.996-1.463 2.606-.36.356-.827.307-.836-.05-.013-.465.084-.86.266-1.373.194-.363.123-.486-.15-.7-.186-.145-.608-.484-.84-.798.146-.305.244-.54.093-.758-.257-.37-.83-.267-.958.212-.092.345-.093.618.055.988-.17.832-.49 1.828-.867 2.43-.236.377-.593.353-.81-.24-.328-.903-.42-1.823-.31-2.328.505-1.396.87-2.894 1.027-4.46.05-.483-.655-.67-1.024-.36-.248.207-.757 2.45-.875 4.57-.31-.29-.977-.098-1.296.155-.788.628-1.373 1.59-1.51 2.474-1.138.605-2.218.625-2.533-.562.51-1.09 1.155-2.193 1.503-3.278.575-1.79.657-3.713-.32-3.716-1.163-.005-1.796 1.263-2.12 2.998-.276 1.48-.342 2.75.1 3.982-.443.9-1.31 1.262-1.668.554-.26-.513.022-1.452.044-2.39.053-.47-.648-.393-.715-.12-.106.43-.107.967-.147 1.41-.035.383-.186.83-.416 1.19-.515.806-1.417.582-1.59.128-.322-.85-.384-1.585-.27-2.798.01-.107-.164-.183-.282-.226-.196-.072-.408-.068-.515.078-.456.623-1.006 1.754-1.473 2.605.075-2.264.565-4.585 1.13-6.847.065-.255-.21-.415-.35-.458-.147-.046-.44-.017-.49.205zm-3.205 2.117c.137.096-.272.835-.463.768-.166-.035-.118-.34-.003-.507.13-.186.32-.355.467-.26zm10.52 3.554c-.223-1.222.008-2.732.867-4.61.17-.373.532-.295.48.12-.207 1.663-.715 3.36-1.347 4.49zm5.577-.515c.185.073.087.414-.03.686-.224.52-.705 1.192-1.157 1.688-.362.397-.833.395-.835 0-.003-.764.884-2.823 2.022-2.373zm5.924 1.69c.184-.205.428-.463.51-.982.033-.204-.178-.284-.26-.133-.167.308-.248.657-.25 1.114M5.204.115l5.05 3.622-.48.48-.53-.38v7.456H1.09v-7.4l-.53.38-.48-.482L5.204.116zM3.156 5.593c-.132.22-.193.402-.325.622l-.074.594c.107-.09.168-.224.236-.338.234-.083.156-.012.215.06.074-.095.096-.17.095-.238-.003-.112-.074-.205-.09-.333-.02-.16-.018-.28-.056-.367zm.372 2.45c-.185-.04-.39-.023-.607-.06.004-.334.052-.388.11-.624-.085.117-.123.22-.22.155-.065-.06-.11-.123-.134-.185-.023-.003-.066.004-.09 0-.008-.108.002-.227-.006-.336-.015-.282-.107-.51-.09-.715.084-.187.183-.365.248-.558.083-.248.132-.406.228-.582.075-.052.134-.05.22-.057.108-.054.23-.085.332-.157.01-.06.014-.098.094-.1.04-.042.03-.046.036-.09-.105-.036-.148-.21-.175-.28-.063.04-.156.035-.178 0-.057-.254.124-.664.332-.692.04-.122.155-.122.27-.106.233.035.22.182.36.293.14.187.087.34.087.525-.016.03-.11.03-.203-.003.022.07-.12.287-.204.282v.073c.083.07.127-.013.1.114.1.07.273.175.407.172.12.042.08.24.153.338-.043.114-.07.05-.114.165.025.376.028.61.064.772.13.288.183.595.42.71.024.038.093.303.1.347-.043.027-.01-.024-.053.002-.127-.014-.12-.206-.192-.178-.023.01-.034.075-.062.043-.017-.052-.053-.11-.04-.162-.05-.054-.207-.18-.257-.234-.002.36.283.623.25.912-.11.02-.334.086-.453.096-.01.17-.05.12-.06.3-.005.113-.076.207-.106.312.015.277-.016.656.006.82.035.05.04.077.02.122-.01.035.002.097.03.158.027.064.04.07.002.13-.094.063-.212.016-.215-.08-.012-.082.033-.123.01-.208.01-.044-.02-.08-.012-.123.013-.124-.06-.248-.1-.37-.025.066-.078.11-.105.176-.055.08-.053.184-.108.263-.093.026-.13-.043-.137-.156.062-.15.106-.188.168-.314.023-.08.02-.272.042-.35-.1-.14-.085-.436-.162-.56zm3.337-.067c-.018-.192.085-.343.15-.42.08-.014.082-.133.163-.148-.058-.146-.063-.55-.12-.762-.006-.195-.012-.33-.017-.525l.113.226c.096.16.22.33.225.462-.02.05-.023.2-.018.25-.002.048.078-.09.076-.042.034.075-.01.233.024.308.045.068.035.036.097-.032.02-.024.074-.1.094-.125-.005-.23.036-.224.01-.35-.032-.04-.032-.054-.063-.092-.063-.25-.146-.478-.21-.727-.078-.148-.118-.33-.145-.51l.09-.055c-.014-.263-.048-.42-.07-.698-.048-.094-.37-.19-.505-.335-.004-.034 0-.04-.003-.075-.015-.017-.045-.055-.098-.047-.008-.065.002-.073-.006-.138.08-.07.086-.054.135-.148.06-.12.132-.327.073-.472l.047-.098c.024-.08.003-.15-.02-.23-.056-.064-.156-.14-.306-.203-.12.07-.373.008-.377.207-.08.014-.112.03-.166.062-.003.095-.036.203.02.3.016.034.014.067.03.1-.032-.023-.04-.02-.06.007 0 .07.03.142.036.213.01.03.03.04.06.036.005.032.04.084.062.1.01.01.053.027.063.038-.002.083-.004.058-.006.14-.08.013-.122.03-.124.054v.07c-.13.097-.335.104-.448.155-.157.158-.236.495-.394.654.057.11.115.042.172.152-.042.2-.138.37-.18.573-.007.2.07.43.063.63l-.153.2-.018.238c.03.062.062.123.094.185.035-.024.07-.048.106-.07l.024-.22.024.313.242.12-.02.073c.026.02.053.036.08.054-.018.11.016.174-.002.283.077.092.093.122.17.213.04.55.13 1.07.228 1.615.012.106.03.167.042.273-.02.068-.03.063-.042.164.038.05.067.108.088.234.094.065.388.064.284-.112-.104-.176-.085-.26-.09-.267-.034-.11-.04-.256-.035-.416.01-.143.018-.287.026-.43 0-.096.02-.476.02-.57 0 .236.043.63.085.86.003.062 0 .054.003.116-.015.068.01.138.045.173.036.034.02.14.058.222.042.144.174.02.21-.162-.09-.142-.14-.28-.126-.558.023-.127.084-.51.107-.638.056-.167.094-.296.085-.398zm1.71-4.62L5.204.942 1.758 3.41v7.212h6.814V3.357z" fill="#fff"/></svg>