<svg viewBox="0 0 150 110" xmlns="http://www.w3.org/2000/svg" fill-rule="evenodd" clip-rule="evenodd" stroke-linejoin="round" stroke-miterlimit="1.414"><path d="M87.702 95.622v-16.14h3.75v13.474c-1.247.91-2.498 1.797-3.75 2.666zM59.227 93.45C45.995 83.914 33.37 72.42 27.42 60.934c-11.894-21.444-11.894-42.888 0-53.61C39.317-3.397 63.106-3.397 75 18.047 86.895-3.397 110.684-3.397 122.58 7.325c11.894 10.722 11.894 32.166 0 53.61-4.196 8.102-11.712 16.205-20.42 23.623V73.106c-.34-12.078-9.652-17.09-25.705-16.807-9.253-2.39-18.4-4.076-31.062-28.98-2.388-5.564-11.195-2.266-8.568 5.796 3.207 12.878 9.627 25.223 22.402 36.512v23.82zm19.906-69.607c7.685 0 13.924 6.752 13.924 15.07 0 8.315-6.24 15.067-13.924 15.067-7.685 0-13.924-6.752-13.924-15.068 0-8.317 6.238-15.07 13.923-15.07z" fill="#fff"/></svg>